<?xml version="1.0" encoding="utf-8"?>
<!DOCTYPE svg PUBLIC "-//W3C//DTD SVG 20010904//EN" "http://www.w3.org/TR/2001/REC-SVG-20010904/DTD/svg10.dtd">
<svg version="1.0" xmlns="http://www.w3.org/2000/svg" width="640px" height="792px" viewBox="0 0 640 792" preserveAspectRatio="xMidYMid meet">
 <g fill="#7ec9cf">
  <path d="M282.4 707.4 c-1.8 -0.7 -4.3 -2.7 -5.5 -4.5 -1.6 -2.4 -4 -3.4 -8.4 -3.6 -4.9 -0.3 -7.5 -1.5 -12.3 -6.3 -3.3 -3.1 -7.3 -8.1 -9 -10.6 -2.2 -3.6 -4.2 -4.9 -7 -4.9 -6.9 0 -13.3 -5.8 -15.7 -14.2 -2.1 -7.6 -1.6 -11.8 2.1 -21.3 1.8 -4.3 1.6 -5.5 -0.6 -9.3 -3.1 -5.4 -3.1 -7.6 0 -14.4 2.1 -4.3 2.2 -6.4 0.9 -11.4 -1.5 -6 -1.3 -6.4 3.4 -11.8 2.8 -3.1 5.1 -6.3 5.1 -7.2 0 -0.9 -2.1 -4.9 -4.6 -9.1 -4.2 -6.6 -4.5 -8.1 -3.1 -12.1 0.9 -2.5 2.7 -5.7 4 -7 1.3 -1.3 1.8 -2.8 1 -3.3 -0.7 -0.4 -3.1 -4.2 -5.4 -8.4 -3.7 -7.2 -3.9 -7.9 -3 -26.2 0.6 -10.5 0.1 -25 -0.7 -33.1 -1.5 -13.6 -2.7 -17.8 -9.3 -32.4 -1.5 -3.4 -2.8 -6.6 -2.8 -7 0 -0.9 -0.9 -2.1 -8.5 -11.1 -1.9 -2.2 -3.4 -4.5 -3.4 -5.1 0 -0.6 -0.9 -1.9 -1.9 -3 -1 -1 -3.6 -4.3 -5.5 -7.2 -4.5 -6.3 -4.8 -6.9 -10.5 -13.5 -6.6 -7.5 -19.8 -26.8 -22.6 -33 -15.1 -32.2 -22.3 -67.6 -22.3 -109.4 0 -26.2 2.5 -39.9 11.2 -60.7 2.4 -5.5 12.4 -22.9 14.2 -24.7 0.4 -0.4 2.1 -2.7 3.6 -5.2 4.2 -6.4 16 -18.7 20.4 -21 2.1 -1.2 5.4 -3.6 7.5 -5.5 2.1 -1.9 8.5 -6.7 14.2 -10.5 5.8 -3.9 15.9 -10.8 22.5 -15.4 11.8 -8.2 17.8 -11.4 39.7 -21 6.1 -2.7 14.2 -6.1 18 -7.9 3.7 -1.6 11.1 -4 16.5 -5.4 5.4 -1.5 11.8 -3.1 14.2 -3.9 9.6 -2.7 56.8 -2.5 58.6 0.3 0.4 0.6 2.5 1.2 4.8 1.2 11.4 0 36.4 7.3 53.5 15.9 31.3 15.4 37.8 21.1 58.3 52.8 15.4 23.5 24 43.8 29.2 69.2 0.6 2.8 1.8 6.6 2.7 8.2 2.7 5.2 5.2 30 4 39.3 -0.6 4.8 -1 9.3 -0.9 9.9 0.6 1.8 -5.7 28.5 -7.2 31.3 -0.9 1.5 -1.5 3.4 -1.5 4.3 0 7 -15.6 33.1 -32.2 53.8 -4.9 6.1 -14.5 19.6 -21.3 30 -6.7 10.3 -13 19.6 -13.9 20.5 -4 4.6 -18.4 34.3 -21.1 43.5 -4.3 15 -7.5 36.1 -8.8 58.2 -1.2 20.5 -3.7 28.6 -11.1 36 -1.8 1.6 -4.8 5.2 -6.9 8.1 -2.1 2.8 -6.6 7.8 -10 10.9 -6.7 6.6 -8.5 11.8 -5.5 15.7 1 1.5 2.1 4.8 2.1 7.5 0 3.7 -1 5.2 -5.2 7.8 -5.5 3.3 -5.7 4.9 -0.4 12.1 1.8 2.5 2.7 6.7 3 13.8 0.1 8.5 -0.3 10.6 -3 13.6 -3.9 4 -4 6.6 -1 10.6 3.3 4.3 2.7 9.9 -1 13.2 -5.1 4.5 -15.7 11.7 -17.4 11.7 -0.7 0 -4.6 3.7 -8.8 8.2 -5.8 6.3 -8.7 8.2 -12 8.2 -4.9 0 -7 1.2 -8.4 4.8 -0.7 2.1 -3.9 2.4 -26.1 2.5 -13.8 0 -26.7 -0.6 -28.3 -1.3z m43.6 -4.3 c0.4 -0.7 -0.6 -1.8 -2.2 -2.4 -4.5 -1.5 -18.6 -0.4 -19.8 1.3 -0.7 1 -1.2 1 -1.2 -0.1 0 -1.3 -2.4 -1.9 -6.7 -1.9 -3.7 0 -6.7 0.7 -6.7 1.6 0 0.7 0.6 1.2 1.2 0.7 0.6 -0.3 2.1 -0.1 3.3 0.7 3 1.8 31 1.8 32.2 0z m7.5 -8.8 c13.5 -0.3 13.5 -0.3 20.2 -6.3 5.4 -4.8 6.1 -6 3.7 -6 -13 -0.1 -35.2 -1.5 -39 -2.4 -13.6 -3.1 -65.2 -2.1 -65.2 1.3 0 0.9 2.5 3.9 5.5 6.6 5.2 4.6 6.1 4.9 17.5 5.1 6.7 0 15.1 0.6 18.9 1.2 3.7 0.6 10.8 1 15.7 0.9 4.9 -0.1 15.1 -0.3 22.5 -0.4z m37.2 -20.2 c7.8 -3.3 8.7 -5.4 6 -13.2 -2.4 -6.6 -2.4 -7 0.7 -13.2 4 -7.5 4 -9.4 0.7 -13.5 -2.7 -3.1 -2.7 -3.1 -10.9 0 -4.5 1.6 -11.5 3.6 -15.7 4.3 -6.7 1 -50.7 -0.3 -61.5 -2.1 -2.4 -0.3 -9.9 -1 -16.5 -1.6 -12.3 -1.2 -13.6 -1.3 -27.9 -3 -4.6 -0.6 -8.8 -0.4 -9.3 0.3 -0.4 0.6 -1 4.6 -1.2 8.7 -0.6 7.5 -0.6 7.5 6.9 8.7 4.2 0.6 20.7 1.8 36.7 2.5 16 0.7 33.3 2.1 38.4 3 12.6 2.1 31.2 1.8 41.4 -0.6 12.9 -3.1 19.5 0 10 4.6 -12.4 6.1 -33.9 8.2 -52.5 5.1 -4.5 -0.7 -17.2 -1.8 -28.3 -2.2 -30.3 -1.2 -52.5 -4.8 -52.5 -8.5 0 -0.7 -1 -1.3 -2.2 -1.3 -2.7 0 -2.8 1 -0.4 7.6 0.9 2.8 3.4 6.6 5.5 8.4 3.7 3.3 4.6 3.4 30 2.7 23.7 -0.7 60.3 1.9 62.8 4.5 1.8 1.8 35.1 0.7 39.7 -1.2z m-10.8 -45.7 c15 -6 16.5 -6.9 16 -9.9 -0.4 -3.3 -2.7 -3.6 -10.9 -1.5 -6.3 1.5 -54 0.9 -71.9 -0.9 -8.2 -0.9 -19 -2.5 -24.1 -3.7 -4.9 -1.3 -12.1 -2.7 -15.7 -3.1 -3.6 -0.4 -9.3 -1.5 -12.6 -2.1 -3.3 -0.7 -6.1 -1 -6.6 -0.6 -0.3 0.3 -0.7 4.2 -0.9 8.7 -0.1 7.9 -0.1 7.9 27.6 9.7 15.3 1 30.9 2.4 34.6 3.1 3.7 0.7 11.7 1.2 17.7 1.2 6.1 0 11.5 0.4 12 1 1.3 1.5 30.3 -0.1 34.9 -1.9z m3.9 -19.6 c8.4 -1.6 16.6 -3.7 18.4 -4.6 2.7 -1.5 2.8 -1.9 0.9 -6.4 -1.8 -4.3 -2.5 -4.8 -7.8 -4.5 -3.1 0.1 -9.9 1.2 -14.8 2.2 -10.3 2.1 -66.4 2.5 -86 0.7 -6.9 -0.6 -16.6 -2.5 -21.6 -4.3 -9.1 -3.1 -9.1 -3.1 -11.8 0.3 -3.6 4.5 -2.4 5.5 8.5 7.3 4.9 0.9 12 2.4 15.7 3.1 9.9 2.2 63 8.2 77.2 8.8 3.3 0 12.9 -1.2 21.3 -2.7z m3 -20.7 c9.3 -1.9 13 -3.6 17.8 -7.8 3.3 -3 7.5 -6.6 9.3 -7.9 7 -5.7 2.2 -7.2 -16.2 -5.2 -11.1 1 -46.5 0.1 -51 -1.5 -1.2 -0.3 -5.2 -0.9 -9 -1.2 -3.7 -0.3 -14.1 -1.3 -23.2 -2.2 -9 -0.9 -24.7 -2.1 -34.9 -2.5 -18 -0.9 -18.4 -0.7 -22.2 2.7 -6 5.5 -6.6 8.8 -3 14.1 4 5.8 5.1 6.6 8.4 5.7 1.5 -0.4 4.3 0.1 6.1 1.3 1.9 1 4.3 1.9 5.1 1.9 0.9 0.1 5.5 0.9 10.5 1.9 16.8 3.6 33 4.6 61.8 3.9 18.9 -0.3 32.7 -1.5 40.5 -3.1z m-12 -50.2 c-0.6 -10.2 -1.9 -23.2 -3.3 -29.2 -1.2 -6 -2.4 -18.4 -2.4 -27.7 -0.1 -15.7 0.1 -17.5 4 -25.9 3.6 -7.3 4.3 -11.2 4.6 -21.7 0.4 -16.5 2.7 -24.6 9 -31.2 5.1 -5.4 6 -9.9 1.9 -10.2 -1.2 0 -3.3 0.9 -4.8 2.1 -1.3 1.2 -4.8 1.8 -8.1 1.5 -4.9 -0.4 -6.3 -1.3 -9.1 -6.4 -1.9 -3.3 -3.4 -8.1 -3.4 -10.8 0 -2.5 -0.7 -5.2 -1.5 -5.7 -2.7 -1.6 -6 2.4 -6 7.5 0 3.4 -1.5 6.4 -4.8 10.2 -7.8 8.4 -16.6 7.6 -22 -2.1 -4.2 -7.3 -5.7 -8.2 -9 -5.2 -2.2 2.1 -2.7 5.7 -3.1 23.8 -1 35.8 -0.7 39.3 2.8 44.2 11.4 16 12.6 31.2 4.3 52 -7.6 18.9 -11.4 46.9 -6.7 49.8 1.8 1.2 25.3 2.7 46.6 3.1 11.8 0.3 11.8 0.3 10.9 -18z m48.1 12 c5.2 -5.2 8.1 -12.9 7.2 -19.9 -0.9 -7.5 1.8 -40.9 4.5 -53.8 1.3 -6.7 3.7 -14.7 5.2 -17.7 1.6 -3.1 2.8 -6.3 2.8 -7 0 -1.9 9.7 -21.9 13.5 -27.9 1.6 -2.4 3.4 -5.5 3.9 -6.7 0.6 -1.2 6.1 -9.9 12.4 -19.2 6.3 -9.4 12.1 -18.1 12.9 -19.5 2.7 -4.3 14.7 -20.4 20.5 -27.3 6.9 -7.9 8.1 -10 16.8 -27.7 7.8 -15.9 9.6 -22.2 12.1 -41.2 3.4 -26.4 1.6 -39.9 -11.2 -80.9 -4.2 -13.3 -15 -33.9 -22 -42 -2.2 -2.5 -27.3 -27.7 -32.2 -32.4 -3.6 -3.3 -25.8 -14.1 -28.9 -14.1 -1 0 -3.9 -1 -6.6 -2.4 -2.5 -1.3 -5.5 -2.5 -6.6 -2.7 -8.2 -1.5 -20.1 -4.6 -21.3 -5.4 -1.8 -1.3 -6.1 -1.6 -39 -2.2 -13.9 -0.3 -28.2 0 -31.5 0.9 -3.3 0.7 -7.6 1.8 -9.7 2.1 -2.1 0.4 -6.3 1.8 -9.3 3 -3.1 1.2 -8.5 3.3 -12 4.6 -3.6 1.3 -12 5.1 -18.7 8.2 -6.9 3.1 -13 5.8 -13.8 5.8 -0.7 0 -1.6 0.6 -1.9 1.2 -0.1 0.6 -5.8 4.3 -12.4 8.4 -21.3 12.7 -36.1 23.4 -49.9 36 -9.3 8.5 -22 27.3 -25 36.9 -1.5 4.5 -4.2 13 -6.1 18.7 -5.4 15.9 -6.9 25.3 -6.7 44.2 0.1 26.8 4.8 52 14.8 79.4 3.7 10.2 14.7 31.5 19.3 37.8 2.2 3 8.4 11.5 13.5 18.7 5.1 7.2 10.5 14.5 12 16.2 6.3 6.9 17.1 26.4 23.1 41.2 6 15.4 7.2 23.7 7.3 50.5 0 25.9 0 25.9 4.2 30.4 4.8 5.4 6.7 5.8 26.1 7 14.5 0.9 14.5 0.9 15.3 -4.2 0.4 -2.8 1.9 -12.4 3.3 -21.4 1.6 -10.8 4.2 -20.7 7.6 -29.2 7.3 -17.8 7.2 -23.4 -1.6 -41.1 -3.7 -7.6 -6.9 -15.9 -6.9 -18.1 0 -2.8 -1.8 -6.3 -5.2 -10 -6 -6.6 -6 -6.7 -3.1 -17.4 1.2 -4.3 1.8 -7.9 1.3 -7.9 -0.6 0 0 -1.2 1.2 -2.5 3.4 -4.3 7.6 -12.6 6.9 -13.5 -0.4 -0.3 -3.9 1 -7.6 3.3 -6 3.6 -7.5 3.7 -11.8 2.4 -4 -1.3 -6 -3.4 -9 -9.6 -4.5 -9.1 -6.3 -18.4 -4 -19.8 2.8 -1.8 5.8 2.2 6.7 9 1.2 7.6 5.8 15.7 9 15.7 1.3 0 5.4 -3 9 -6.7 5.2 -5.2 6.7 -7.8 6.7 -11.7 0 -5.5 2.2 -8.7 5.4 -7.5 1.3 0.4 2.1 3.1 2.1 7.2 0 3.6 0.7 7 1.6 7.5 1.8 1.2 10.3 -1.9 10.3 -3.9 0 -3.4 9.7 -16.2 13 -17.1 4.2 -1 10.5 2.4 12 6.4 2.5 7.2 6.6 7.3 9.4 0.3 1.9 -4.6 5.4 -6.7 6.9 -4.3 0.4 0.9 1.2 7.3 1.6 14.4 0.7 15.6 1.9 18.6 7.8 17.8 7 -0.7 10.3 -5.2 12 -16 0.9 -5.2 1.8 -10.9 2.2 -12.6 0.3 -1.6 0.7 -3.4 0.7 -4 0.1 -0.7 1.5 -1.2 3.1 -1.2 3.7 0 4 6 0.7 20.2 -2.5 10.8 -1.3 15.7 3.7 15.7 4.3 0 3.7 2.2 -3.1 13.2 -7.2 11.4 -10.6 22.6 -9.4 30.4 0.7 4 -0.3 8.7 -4.3 18.7 -7.2 18.1 -7.3 19.8 -4.6 39.6 1.3 9.4 3.3 27.4 4.3 39.7 1 12.4 1.9 22.8 2.1 23.1 0.1 0.3 7.3 0.1 16.2 -0.4 15.6 -0.9 16.3 -1.2 21.1 -5.7z m-111.8 -138.9 c0.3 -6.7 -0.1 -9.7 -1.3 -10.2 -3.7 -1.3 -7.6 15.6 -4.8 20.8 2.7 5.1 5.5 0.1 6.1 -10.6z m37.2 -31.5 c0 -3 -1.3 -4.6 -5.1 -6.7 -6.6 -3.4 -9.1 -2.5 -9.6 3.6 -0.4 6.9 0.9 10.5 4.6 12 4.3 1.5 10 -3.4 10 -8.8z m-1.6 -16.2 c-1 -1.5 -2.1 -3 -2.4 -3.3 -0.1 -0.1 -1 0 -1.9 0.6 -2.1 1.3 0.9 5.2 4 5.2 1.9 0 1.9 -0.4 0.3 -2.5z"/>
  <path d="M362.7 339.2 c-3.7 -1.5 -9.1 -8.2 -12.3 -15.3 -2.4 -5.2 -3.3 -11.7 -4.3 -30.1 -1.5 -28.6 -2.2 -30.9 -9.9 -31.9 -3.1 -0.4 -7 -1 -8.7 -1.5 -4.3 -1 -6.9 1.5 -5.4 5.4 1.2 3.3 3 13.3 3.9 23.2 1.5 15.6 3.9 33.9 4.5 34.8 1.5 2.2 -4.5 5.7 -8.5 4.9 -3.3 -0.6 -4.5 -1.9 -5.5 -6.3 -1.8 -7.8 -4.3 -23.7 -6.7 -44.2 -1.2 -9.7 -2.7 -18.3 -3.4 -18.9 -2.7 -2.7 -10.5 -2.7 -14.1 0.1 -3.4 2.7 -3.4 2.8 -0.4 2.8 4 0 5.8 4 3 6.7 -6.3 6.3 -17.4 1.8 -17.4 -7 0 -6.6 2.4 -9.7 10.9 -14.7 9.1 -5.2 19.5 -5.8 33.6 -2.2 12.3 3.1 36.9 3 42.1 -0.3 2.2 -1.5 4.3 -3.1 4.8 -3.6 0.4 -0.6 2.1 -1.3 3.6 -1.6 2.2 -0.3 3.3 0.7 4.3 4.3 1.8 6 0.1 8.4 -9.7 13.3 -7.3 3.7 -7.3 3.7 -7 22 0.3 32.2 4.6 51.1 11.5 50.1 4.3 -0.6 6 -2.4 7 -7.5 2.4 -10.6 8.2 -10.8 8.2 0 0 5.5 -0.9 7.5 -5.1 11.8 -5.2 5.4 -13.5 7.8 -18.9 5.5z"/>
  <path d="M198.9 318.2 c-1.3 -1.2 -1.3 -35.4 -0.1 -38.5 0.7 -1.8 1.2 -1.9 2.7 -0.4 1.2 1.2 2.2 8.7 2.7 21 0.7 17.4 0.6 19 -1.6 19 -1.5 0 -3.1 -0.4 -3.6 -1z"/>
  <path d="M259.9 317.2 c-6.3 -2.8 -11.2 -9.9 -9.4 -13.3 2.2 -3.7 4.8 -3.1 7.6 1.9 2.1 3.6 3.6 4.5 7.8 4.5 3.6 0 5.8 -0.9 7.5 -3.3 3 -4.2 1 -7.8 -6.3 -11.2 -7.2 -3.4 -10.6 -7.6 -10.8 -13.2 0 -8.5 1.5 -11.1 7.8 -13 5.8 -1.6 6.3 -1.6 9.7 2.4 3 3.4 3.3 4.6 1.6 6.4 -1.6 1.9 -2.1 1.9 -3.9 -0.9 -2.7 -4 -5.7 -4 -7.8 0 -2.7 4.8 -0.7 9.9 4 10.8 6 1.2 13.9 9 13.9 13.6 0 5.8 -4.5 12.1 -10.8 14.8 -3.1 1.5 -5.8 2.5 -6.1 2.5 -0.1 -0.1 -2.4 -1 -4.9 -2.1z"/>
  <path d="M214.5 315.8 c-0.9 -1.2 -1.9 -7 -2.4 -13.2 -0.4 -6.1 -1.2 -13.9 -1.5 -17.5 -0.7 -7.3 2.4 -10.2 5.8 -5.4 1.9 2.5 2.2 2.4 6.9 -1.3 7.3 -6.1 14.7 -4.9 17.7 3 2.8 7.8 4.8 32.4 2.5 34.6 -0.4 0.4 -1.8 -0.1 -3 -1.3 -1.5 -1.3 -2.5 -6.7 -3.1 -14.8 -1.3 -18.6 -3 -21.6 -9.6 -18 -4.8 2.5 -6.4 7.3 -7 20.2 -0.1 6.6 -0.7 12.9 -1.2 13.9 -0.9 2.4 -3 2.2 -5.1 -0.1z"/>
  <path d="M393.1 307 c-0.9 -1 -1.6 -3 -1.6 -4.2 -0.1 -1.2 -1.2 -7.3 -2.5 -13.5 -4.8 -23.1 -4.5 -30.4 1.2 -24.9 1.8 1.9 2.7 1.8 7 -0.7 5.7 -3.4 13.2 -3.3 15.6 0.4 2.5 4.2 -0.6 6 -6.3 3.9 -4.2 -1.6 -4.9 -1.5 -7 1 -2.7 3.7 -3.1 27.3 -0.4 33 1.5 3.3 1.3 4.2 -0.4 5.4 -2.8 1.8 -3.7 1.6 -5.4 -0.4z"/>
  <path d="M437.5 302.5 c-3.1 -1.8 -6 -5.1 -7.6 -8.8 -1.5 -3.6 -3.9 -6.4 -6.3 -7.3 -4.9 -1.8 -4.9 -3.9 0.3 -6.6 3 -1.5 4.6 -4 6 -9.3 2.4 -9 5.5 -12.6 10.9 -12.6 5.2 0 8.8 4.8 8.8 11.8 0 3.9 -1.2 6.1 -5.4 10 -2.8 2.8 -6 5.1 -6.7 5.1 -0.7 0 -1.3 2.4 -1.3 5.4 0 4.6 0.6 5.5 5.2 7.3 6.6 2.8 10.5 1.3 17.5 -6.4 5.5 -6.1 8.1 -14.1 9 -28 0.7 -9.3 3.4 -5.5 3.3 4.5 0 12 -2.7 20.7 -8.4 27.1 -8.4 9.6 -17.4 12.4 -25.3 7.8z m4.6 -29.7 c1.6 -3.1 0.7 -9 -1.3 -9 -1.5 0 -4.6 6.7 -4.6 9.7 0 3.3 4.2 2.7 6 -0.7z"/>
  <path d="M200.1 266.8 c0.1 -1.2 0.7 -2.1 1.2 -1.8 0.6 0.1 1.8 0.3 2.5 0.3 0.9 0 1.5 0.9 1.5 2.1 0 1.2 -1.2 2.1 -2.8 1.9 -1.6 0 -2.7 -1.2 -2.4 -2.5z"/>
  <path d="M253 207.1 c0.4 -18.9 0.1 -27.7 -1 -30 -1.5 -2.8 -1.3 -3.4 1.9 -4.9 4.9 -2.2 7.8 -1 9 3.9 0.6 2.2 1.6 4.8 2.5 5.7 0.7 1 3.4 4.6 5.8 8.2 2.5 3.4 5.4 6.3 6.6 6.3 2.5 0 7 -12.4 7.2 -19.8 0.1 -5.4 1.8 -7.2 6.7 -7.2 4.5 0 5.5 2.4 6 12.7 0 4.9 0.6 11.1 1 13.5 0.4 2.5 1.5 9.6 2.4 15.7 1.9 12.6 3.6 16.5 6.9 16.5 3.1 0 5.1 -6.3 6.1 -19.8 0.9 -11.7 0.9 -11.7 -3.1 -11.7 -6.4 0 -6.9 -7.8 -0.4 -8.4 1 0 3 -0.3 4.5 -0.3 2.1 -0.3 2.5 -1.8 2.5 -8.4 0 -8.1 0 -8.1 5.2 -9 6.9 -1.3 8.4 -0.3 7.9 5.8 -0.3 6 0.4 7 5.1 7.3 3.1 0.1 3.4 0.9 3.4 9.1 0 10.3 5.7 28.5 9.3 29.8 2.8 1.2 0.4 4.6 -4 5.8 -2.2 0.6 -3.3 -0.1 -4 -3.1 -0.4 -2.1 -1.8 -5.5 -2.8 -7.6 -1.2 -2.1 -2.1 -4.9 -2.1 -6.1 -0.1 -3.1 -5.8 -15.4 -7.8 -16.8 -2.8 -1.6 -7.5 1.6 -6.4 4.6 0.4 1.3 0.1 6.9 -0.6 12.3 -0.7 6.1 -0.7 10.6 0.1 12.4 1.2 2.2 1 3.3 -1 4.8 -1.3 1 -3.4 1.5 -4.5 1.2 -1 -0.4 -4.3 0.3 -7.5 1.5 -3.1 1.3 -7 2.4 -8.8 2.4 -3 0 -3.1 -0.7 -3.3 -12.4 -0.3 -13 -4.2 -30.3 -6.6 -28.8 -0.9 0.6 -1.5 3.9 -1.5 7.6 0 6.9 -0.1 7 -7.9 8.7 -3.7 0.9 -4.3 0.4 -6.9 -5.4 -3 -6.9 -10.2 -15.7 -11.4 -14.4 -0.4 0.4 -1 8.7 -1.3 18.1 -0.4 12.7 0 18.1 1.3 20.1 2.5 3.6 0.3 6.4 -5.2 6.4 -4 0 -4 0 -3.3 -26.7z"/>
  <path d="M414.4 230.7 c0.7 -1.9 1.2 -4.2 1 -5.1 -0.3 -6.1 -3.6 -35.2 -4.2 -38.1 -0.7 -3.4 -1 -3.4 -10 -2.4 -5.1 0.4 -9.7 1.6 -10.2 2.5 -1.6 2.7 0.1 30 2.4 35.8 2.1 5.4 2.1 5.4 -3.9 7.2 -3.3 1 -6.6 1.3 -7.3 0.9 -1.8 -1.2 -0.1 -5.2 1.9 -4.8 2.1 0.3 1.6 -10.5 -0.6 -17.7 -1.2 -4.2 -1.6 -9.3 -3.4 -37.6 -0.3 -4.3 -1 -8.5 -1.6 -9.6 -0.7 -1.2 -0.6 -1.6 0.4 -0.9 2.5 1.5 3.6 -1.8 1.6 -5.4 -1.2 -2.1 -1.9 -9.7 -1.9 -19 -0.1 -14.1 -0.4 -15.6 -3 -16 -6.4 -0.9 -6.9 -8.5 -0.6 -9.3 2.4 -0.3 4.5 -1.6 4.9 -3.4 1 -3.3 7.5 -3.4 7.5 -0.3 0 1 1.5 3 3.4 4.2 4.3 3.1 4.3 7.9 -0.3 9.1 -2.8 0.6 -3.7 2.1 -4.5 7.6 -2.1 16 -0.4 24.4 5.1 24.4 4.6 0 8.7 -5.1 11.2 -14.1 2.8 -9.4 4.8 -11.5 6 -6.4 2.2 8.8 -4.2 22.2 -12.6 25.9 -3.4 1.5 -6.3 3.9 -6.7 5.7 -1.2 4.6 0.7 14.5 3 15.4 1.2 0.4 5.4 -0.4 9.6 -1.9 7.2 -2.5 7.5 -2.8 7.5 -8.4 0 -3.9 -0.6 -5.7 -2.1 -5.7 -1 0 -2.8 -1 -3.9 -2.2 -2.2 -2.5 -1.3 -3 9.3 -4.5 6.9 -0.9 6.9 -0.9 6.1 8.2 -0.4 5.1 -0.1 14.8 0.7 21.4 0.9 6.7 2.4 17.7 3.3 24.1 0.7 6.6 2.5 13.9 3.7 16.3 1.2 2.5 2.1 4.8 1.8 5.1 -0.3 0.1 -3.7 0.9 -7.6 1.3 -7.2 1 -7.2 1 -6.1 -2.5z"/>
  <path d="M362 229.6 c-0.9 -0.6 -1.6 -4.3 -1.6 -8.5 0 -4 -0.9 -12.9 -1.9 -19.5 -0.9 -6.6 -2.1 -15.1 -2.2 -18.9 -0.7 -10 -1.3 -10.5 -10.8 -9.4 -7.9 1 -8.1 0.9 -8.1 -2.8 0 -3.6 0.4 -3.9 5.7 -3.7 3 0 8.5 -0.3 12.3 -0.9 3.7 -0.6 9 -1.3 11.7 -1.6 2.7 -0.3 5.5 -1 6.3 -1.5 1.6 -1 1.8 -0.7 2.4 6.4 0.3 4.9 0.3 4.9 -6.4 3.9 -6.9 -1 -6.9 -1 -6 12.6 1.2 17.4 3.9 34.6 5.8 38.8 0.9 1.6 1 3.9 0.6 4.8 -1.2 1.9 -5.4 2.1 -7.6 0.4z"/>
  <path d="M286.7 161.1 c-2.7 -1.9 -2.1 -6.6 3.3 -26.7 1.8 -6.4 1.6 -7.2 -0.9 -8.5 -3.4 -1.9 -2.2 -5.4 2.5 -6.6 2.4 -0.6 3.6 -2.1 3.6 -4 0 -3.4 5.4 -8.7 9 -8.8 1.2 0 3.1 1.3 4.2 3.1 1.8 2.7 1.3 3.6 -3.1 7.8 -2.8 2.7 -5.5 6.4 -6 8.5 -0.4 2.1 -2.2 8.8 -3.7 15 -2.5 9.4 -2.7 11.5 -0.9 13.3 1.6 1.8 3 1.8 8.2 0.3 7 -2.1 17.8 -0.9 17.8 2.1 0 1.8 -9.4 4.6 -12.6 3.9 -0.7 -0.1 -2.4 0.1 -3.7 0.7 -4.2 1.9 -15 1.8 -17.7 -0.1z"/>
  <path d="M332.7 157.4 c0 -3.1 -0.3 -3.7 -2.1 -4.8 -0.9 -0.6 -1.9 -3.6 -2.1 -6.7 -0.4 -6.4 -2.4 -8.2 -8.1 -7.3 -4.9 0.9 -8.2 -2.4 -5.1 -5.1 1.3 -0.9 2.8 -1.3 3.4 -1 2.5 1.6 8.4 -3.3 12.3 -10.3 5.8 -10.9 14.2 -11.1 13.9 -0.4 -0.1 3.6 -1.5 6.3 -5.4 9.7 -6 5.5 -7.2 12.4 -3 18.3 2.5 3.7 6.1 4.2 11.7 1.5 4.5 -1.9 7.5 -6 13.6 -18.3 4.6 -9.3 7.2 -11.2 7.9 -6.1 1 7 -10.9 26.2 -18.7 30 -5.2 2.5 -18.4 3.1 -18.4 0.7z m6 -35.2 c0 -0.4 -0.3 -0.7 -0.7 -0.7 -0.4 0 -0.7 0.3 -0.7 0.7 0 0.4 0.3 0.7 0.7 0.7 0.4 0 0.7 -0.3 0.7 -0.7z"/>
  <path d="M454.4 540.2 c-1.8 -1.2 -3.3 -3.1 -3.3 -4.3 0 -1 -0.4 -2.2 -1.2 -2.5 -2.1 -0.9 -15.3 -21.4 -15.3 -23.8 0 -1.3 0.9 -3.3 2.1 -4.2 3.4 -2.8 7.6 0.3 14.4 10.8 3.3 5.1 7.5 11.2 9.3 13.6 4.8 6 4.8 6.6 1.8 10 -3.1 3.4 -3.6 3.4 -7.8 0.4z"/>
  <path d="M145.7 520.5 c-1 -0.3 -2.5 -2.1 -3.4 -3.6 -1.3 -2.5 0.3 -4.8 11.7 -16.6 32.2 -33.4 33.1 -34.2 36.6 -28 1.3 2.7 0.9 3.9 -2.8 7.9 -2.5 2.5 -6.7 7.3 -9.6 10.6 -7.3 8.7 -28.6 30.7 -29.5 30.6 -0.4 0 -1.8 -0.4 -2.8 -0.9z"/>
  <path d="M496.7 498.1 c-5.2 -5.4 -9.6 -10.8 -9.6 -11.8 0 -1 -1.5 -3.1 -3.3 -4.6 -1.9 -1.5 -4.3 -4.5 -5.5 -6.7 -1.2 -2.4 -2.7 -4.2 -3.3 -4.2 -1.9 0 -16.3 -21.4 -16.3 -24.3 0 -3 4.8 -6 7.8 -4.9 1 0.4 4.3 4.3 7.2 8.5 2.8 4.3 6.7 9.4 8.5 11.4 1.8 1.9 6.1 7.3 9.7 12 3.6 4.6 9.7 11.8 13.8 16 3.9 4 8.2 9.1 9.6 11.1 2.2 3.3 2.1 3.6 -0.4 5.5 -4.9 3.7 -8.2 2.2 -18.1 -7.9z"/>
  <path d="M79.4 461 c0 -6.1 0.6 -7 7.2 -12.4 3.9 -3.3 11.8 -9.1 17.5 -13.2 9.6 -6.6 13.8 -9.9 24.7 -19 2.1 -1.6 6.1 -4.6 9 -6.4 2.8 -1.8 6.4 -4.8 7.9 -6.4 3.7 -4 7 -2.5 7 3 0 3 -1.3 5.5 -3.9 7.6 -2.2 1.8 -7 6 -10.9 9.4 -3.7 3.4 -7.9 6.7 -9.3 7.5 -1.3 0.7 -4.8 3.1 -7.5 5.4 -4.9 4 -16.3 12.3 -26.5 19.5 -2.8 1.9 -7 5.2 -9.4 7.6 -2.4 2.2 -4.8 4 -5.1 4 -0.4 0 -0.7 -3 -0.7 -6.6z"/>
  <path d="M548.7 454.4 c-6.1 -4.9 -30 -28.5 -34.2 -33.7 -3.7 -4.8 -14.8 -17.8 -22.9 -26.7 -3.3 -3.6 -6 -7 -6 -7.5 0 -0.4 1.3 -2.1 2.8 -3.4 4.3 -4 8.1 -1.2 26.4 20.1 13.9 16.3 27.7 30.4 41.8 43.3 4.6 4 4.9 8.4 1 10.6 -3.7 1.9 -3 2.1 -9 -2.7z"/>
  <path d="M113.2 315.4 c-7.3 -3.7 -17.8 -9 -23.2 -11.7 -9.6 -4.6 -9.7 -4.9 -10.2 -11.2 -0.4 -5.7 -0.1 -6.3 2.2 -5.5 2.7 0.9 51.4 26.1 52.8 27.3 1.5 1.3 -3 8.1 -5.4 8.1 -1.5 0 -8.7 -3.1 -16.2 -6.9z"/>
  <path d="M532.4 305.9 c-1.6 -0.9 -1.5 -1.6 0.4 -3.7 1.3 -1.3 3.1 -2.4 3.9 -2.4 0.9 0 5.8 -3 11.4 -6.7 10.5 -7.2 12.4 -7.9 12.4 -4.8 0 2.8 -4.2 6.4 -15.4 13.3 -10.2 6.3 -9.9 6.1 -12.7 4.3z"/>
  <path d="M115.9 217.8 c-4.2 -4 -9.4 -8.8 -11.5 -10.8 -7.8 -7 -3.1 -8.5 6 -1.8 8.7 6.4 17.5 16.2 16.5 18 -1.6 2.7 -2.8 2.1 -10.9 -5.4z"/>
  <path d="M540.3 193.3 c-0.4 -0.7 -0.6 -2.1 0 -2.8 0.9 -1.6 18.4 -15.1 19.5 -15.1 0.4 0 0.7 1.2 0.7 2.7 0 2.7 -6 9 -13.5 14.2 -4.2 3 -5.4 3.1 -6.7 1z"/>
  <path d="M161.4 157.5 c-2.2 -1.5 -4.9 -3.7 -6 -5.1 -1 -1.2 -5.1 -5.1 -9.3 -8.5 -6.1 -5.4 -10.6 -10.5 -24.4 -27.7 -0.7 -0.9 -2.5 -3.6 -4.2 -6 -1.5 -2.5 -3.1 -4.8 -3.6 -5.2 -2.4 -2.2 -9.1 -18.6 -8.4 -20.4 0.4 -1.2 2.4 -2.1 4.2 -2.1 3.7 0 8.2 5.1 15.1 16.5 2.1 3.7 6 9.1 8.5 12 6.7 7.5 20.1 21.7 30.6 32.5 8.2 8.7 8.8 9.6 7.2 13.2 -1.9 4.3 -3.9 4.5 -9.7 0.9z"/>
  <path d="M510.7 147.3 c-3.1 -3.1 0.3 -7.5 27.4 -34.5 22.2 -22 20.2 -20.4 22.5 -17.7 3.1 3.7 0.6 10.6 -6.3 16.8 -3.4 3.1 -9.9 9.1 -14.1 13.2 -23.5 23.1 -26.5 25.3 -29.5 22.2z"/>
  <path d="M226.8 107.6 c-0.9 -1 -1.6 -3 -1.6 -4.2 0 -1.2 -1 -5.8 -2.4 -10.2 -1.9 -7.2 -1.9 -7.9 0.1 -7.2 1.2 0.4 2.5 0.9 2.8 0.9 0.3 0 0.6 0.9 0.6 1.9 0 0.9 1 3.7 2.2 6 3.4 6.7 4.5 14.5 1.8 14.5 -1.2 0 -2.8 -0.9 -3.6 -1.8z"/>
  <path d="M454.7 102.8 c-0.7 -2.1 4.6 -11.5 7.3 -12.6 0.6 -0.3 1 -1.5 1 -2.7 0 -1.2 0.9 -1.6 2.4 -1 2.8 1 1.9 5.7 -2.8 13 -3.4 5.5 -6.6 6.9 -7.9 3.3z"/>
 </g>
</svg>